<svg width="25" height="25" viewBox="0 0 25 25" fill="none" xmlns="http://www.w3.org/2000/svg">
<g clip-path="url(#clip0_18_401)">
<path d="M17.4783 3.16229L21.4783 3.16229C21.7435 3.16229 21.9978 3.26765 22.1854 3.45519C22.3729 3.64272 22.4783 3.89708 22.4783 4.16229L22.4783 20.1623C22.4783 20.4275 22.3729 20.6819 22.1854 20.8694C21.9978 21.0569 21.7435 21.1623 21.4783 21.1623L3.47827 21.1623C3.21306 21.1623 2.9587 21.0569 2.77116 20.8694C2.58363 20.6819 2.47827 20.4275 2.47827 20.1623L2.47827 4.16229C2.47827 3.89708 2.58363 3.64272 2.77116 3.45519C2.9587 3.26765 3.21306 3.16229 3.47827 3.16229L7.47827 3.16229L7.47827 1.16229L9.47827 1.16229L9.47827 3.16229L15.4783 3.16229L15.4783 1.16229L17.4783 1.16229L17.4783 3.16229ZM20.4783 11.1623L4.47827 11.1623L4.47827 19.1623L20.4783 19.1623L20.4783 11.1623ZM15.4783 5.16229L9.47827 5.16229L9.47827 7.16229L7.47827 7.16229L7.47827 5.16229L4.47827 5.16229L4.47827 9.16229L20.4783 9.16229L20.4783 5.16229L17.4783 5.16229L17.4783 7.16229L15.4783 7.16229L15.4783 5.16229ZM6.47827 13.1623L8.47827 13.1623L8.47827 15.1623L6.47827 15.1623L6.47827 13.1623ZM11.4783 13.1623L13.4783 13.1623L13.4783 15.1623L11.4783 15.1623L11.4783 13.1623ZM16.4783 13.1623L18.4783 13.1623L18.4783 15.1623L16.4783 15.1623L16.4783 13.1623Z" fill="black"/>
</g>
<defs>
<clipPath id="clip0_18_401">
<rect width="24" height="24" fill="white" transform="translate(0.478271 0.162292)"/>
</clipPath>
</defs>
</svg>
