<svg width="31" height="31" viewBox="0 0 31 31" fill="none" xmlns="http://www.w3.org/2000/svg">
<path d="M13.2245 13.9755L12.6911 3.50138L15.1117 4.13252L18.7005 15.4023L25.2885 17.1202C25.5268 17.1823 25.7505 17.2907 25.9469 17.4393C26.1433 17.5878 26.3085 17.7736 26.4331 17.986C26.5577 18.1984 26.6392 18.4332 26.6731 18.6771C26.7069 18.921 26.6924 19.1692 26.6303 19.4075C26.5682 19.6458 26.4598 19.8695 26.3113 20.0659C26.1627 20.2622 25.9769 20.4275 25.7646 20.552C25.5522 20.6766 25.3173 20.7582 25.0734 20.792C24.8295 20.8258 24.5813 20.8113 24.3431 20.7492L5.59457 15.8609L6.54005 12.2319L6.84309 12.3111L8.01388 16.4908L4.72426 15.6343C4.4547 15.5637 4.21645 15.4051 4.04736 15.1836C3.87826 14.9621 3.78803 14.6905 3.79098 14.4118L3.8578 7.65747L5.67229 8.13021L6.84309 12.3111L13.2245 13.9755ZM5.47928 24.6906L25.4788 24.5554L25.4957 27.0553L5.49619 27.1906L5.47928 24.6906Z" fill="#1A1A1A"/>
</svg>
