<svg width="31" height="31" viewBox="0 0 31 31" fill="none" xmlns="http://www.w3.org/2000/svg">
<path d="M13.5156 14.8318L7.8184 6.03014L10.2277 5.36633L18.9705 13.3324L25.536 11.5254C26.0155 11.3936 26.5277 11.4576 26.96 11.7034C27.3923 11.9492 27.7093 12.3566 27.8411 12.8361C27.973 13.3156 27.909 13.8279 27.6632 14.2602C27.4174 14.6925 27.0099 15.0094 26.5304 15.1413L7.84977 20.2803L6.8553 16.6644L7.15599 16.5811L10.2603 19.6164L6.98386 20.5186C6.71519 20.5926 6.4295 20.5747 6.17217 20.4677C5.91484 20.3607 5.70064 20.1709 5.56359 19.9282L2.24496 14.043L4.05289 13.5458L7.15599 16.5811L13.5155 14.8306L13.5156 14.8318ZM5.48053 24.0964L25.4801 23.9611L25.497 26.461L5.49744 26.5963L5.48053 24.0964Z" fill="#1A1A1A"/>
</svg>
